<svg width="1366" height="800" viewBox="0 0 1366 800" fill="none" xmlns="http://www.w3.org/2000/svg">
<g clip-path="url(#clip0_5870_83123)">
<path d="M199.853 383H113.255C112.259 383 111.451 383.808 111.451 384.804V796.443H744.695V726.684C744.695 725.687 743.887 724.88 742.891 724.88H701.096C700.099 724.88 699.292 724.072 699.292 723.075V668.108C699.292 667.212 698.633 666.451 697.746 666.323L657.755 660.531C656.667 660.373 655.692 661.217 655.692 662.316V708.041C655.692 709.038 654.884 709.845 653.888 709.845H641.259C640.263 709.845 639.455 709.038 639.455 708.041V673.118C639.455 672.027 638.494 671.185 637.412 671.33L593.812 677.162C592.916 677.282 592.248 678.046 592.248 678.95V723.075C592.248 724.072 591.44 724.88 590.443 724.88H564.584C563.588 724.88 562.78 724.072 562.78 723.075V674.064C562.78 673.067 561.973 672.26 560.976 672.26H509.258C508.262 672.26 507.454 673.067 507.454 674.064V723.075C507.454 724.072 506.646 724.88 505.65 724.88H487.008C486.011 724.88 485.203 724.072 485.203 723.075V684.888C485.203 683.892 484.396 683.084 483.399 683.084H443.408C442.412 683.084 441.604 683.892 441.604 684.888V702.027C441.604 703.024 440.796 703.832 439.8 703.832H430.178C429.182 703.832 428.374 703.024 428.374 702.027V635.877C428.374 634.88 427.566 634.072 426.57 634.072H373.048C372.051 634.072 371.244 634.88 371.244 635.877V702.027C371.244 703.024 370.436 703.832 369.439 703.832H356.51C355.514 703.832 354.706 703.024 354.706 702.027V581.358C354.706 580.678 354.323 580.056 353.717 579.749L286.062 545.494C284.862 544.886 283.443 545.758 283.443 547.103V702.027C283.443 703.024 282.636 703.832 281.639 703.832H273.821C272.825 703.832 272.017 703.024 272.017 702.027V613.958C272.017 612.466 270.308 611.619 269.121 612.522L217.403 651.873C216.954 652.214 216.691 652.745 216.691 653.309V717.663C216.691 718.659 215.883 719.467 214.887 719.467H203.461C202.465 719.467 201.657 718.659 201.657 717.663V384.804C201.657 383.808 200.849 383 199.853 383Z" fill="#E7F2FF"/>
<path d="M1163.6 473H1250.2C1251.19 473 1252 473.808 1252 474.804V796.443H618.756V726.684C618.756 725.687 619.564 724.88 620.56 724.88H662.355C663.352 724.88 664.16 724.072 664.16 723.075V668.108C664.16 667.212 664.818 666.451 665.705 666.323L705.696 660.531C706.784 660.373 707.759 661.217 707.759 662.316V708.041C707.759 709.038 708.567 709.845 709.563 709.845H722.192C723.188 709.845 723.996 709.038 723.996 708.041V673.118C723.996 672.027 724.958 671.185 726.039 671.33L769.639 677.162C770.535 677.282 771.204 678.046 771.204 678.95V723.075C771.204 724.072 772.011 724.88 773.008 724.88H798.867C799.863 724.88 800.671 724.072 800.671 723.075V674.064C800.671 673.067 801.479 672.26 802.475 672.26H854.193C855.189 672.26 855.997 673.067 855.997 674.064V723.075C855.997 724.072 856.805 724.88 857.801 724.88H876.444C877.44 724.88 878.248 724.072 878.248 723.075V684.888C878.248 683.892 879.055 683.084 880.052 683.084H920.043C921.039 683.084 921.847 683.892 921.847 684.888V702.027C921.847 703.024 922.655 703.832 923.651 703.832H933.273C934.27 703.832 935.077 703.024 935.077 702.027V635.877C935.077 634.88 935.885 634.072 936.881 634.072H990.404C991.4 634.072 992.208 634.88 992.208 635.877V702.027C992.208 703.024 993.015 703.832 994.012 703.832H1006.94C1007.94 703.832 1008.75 703.024 1008.75 702.027V583.877C1008.75 582.387 1010.45 581.539 1011.64 582.438L1079.29 633.626C1079.74 633.967 1080.01 634.5 1080.01 635.065V702.027C1080.01 703.024 1080.82 703.832 1081.81 703.832H1089.63C1090.63 703.832 1091.43 703.024 1091.43 702.027V613.958C1091.43 612.466 1093.14 611.619 1094.33 612.522L1146.05 651.873C1146.5 652.214 1146.76 652.745 1146.76 653.309V717.663C1146.76 718.659 1147.57 719.467 1148.56 719.467H1159.99C1160.99 719.467 1161.79 718.659 1161.79 717.663V474.804C1161.79 473.808 1162.6 473 1163.6 473Z" fill="#E7F2FF"/>
<path d="M1139.58 637.195C1139.58 598.106 1107.9 566.418 1068.81 566.418V566.418C1068.37 566.418 1068.02 566.77 1068.02 567.204V796.743H1139.58V637.195Z" fill="#9DCDFF"/>
<path d="M1121.54 656.023C1121.54 646.059 1129.62 637.981 1139.58 637.981V637.981V809.372V809.372C1129.62 809.372 1121.54 801.295 1121.54 791.331V656.023Z" fill="#6BB3FD"/>
<path d="M1065.31 599.494H1106.81" stroke="white" stroke-width="1.80411"/>
<path d="M1065.31 623.549H1106.81" stroke="white" stroke-width="1.80411"/>
<path d="M1065.31 647.604H1106.81" stroke="white" stroke-width="1.80411"/>
<path d="M1065.31 671.659H1106.81" stroke="white" stroke-width="1.80411"/>
<path d="M1065.31 695.714H1106.81" stroke="white" stroke-width="1.80411"/>
<path d="M1065.31 719.769H1106.81" stroke="white" stroke-width="1.80411"/>
<path d="M1065.31 743.823H1106.81" stroke="white" stroke-width="1.80411"/>
<path d="M1065.31 767.877H1106.81" stroke="white" stroke-width="1.80411"/>
<path d="M1065.31 791.933H1106.81" stroke="white" stroke-width="1.80411"/>
<path d="M1084.86 600.096V792.534" stroke="white" stroke-width="1.80411"/>
<path d="M850.5 758.703V797.5V799.297C850.5 799.962 851.038 800.5 851.703 800.5H1013.8C1014.46 800.5 1015 799.962 1015 799.297V772.203C1015 771.538 1014.46 771 1013.8 771H987.203C986.538 771 986 770.462 986 769.797V717.703C986 717.038 985.462 716.5 984.797 716.5H943.703C943.038 716.5 942.5 717.038 942.5 717.703V732.797C942.5 733.462 941.962 734 941.297 734H902.703C902.038 734 901.5 734.538 901.5 735.203V756.297C901.5 756.962 900.962 757.5 900.297 757.5H851.703C851.038 757.5 850.5 758.038 850.5 758.703Z" fill="#6BB3FD"/>
<path d="M249.534 436.521C249.534 432.257 250.374 428.034 252.006 424.094C253.638 420.154 256.03 416.574 259.045 413.559C262.061 410.543 265.641 408.151 269.581 406.519C273.521 404.887 277.743 404.047 282.008 404.047C286.272 404.047 290.495 404.887 294.435 406.519C298.375 408.151 301.955 410.543 304.971 413.559C307.986 416.574 310.378 420.154 312.01 424.094C313.642 428.034 314.482 432.257 314.482 436.521L282.008 436.521H249.534Z" fill="#E6F2FF"/>
<path d="M297.496 436.522C297.496 434.291 297.935 432.082 298.789 430.021C299.642 427.96 300.894 426.088 302.471 424.51C304.048 422.933 305.921 421.682 307.982 420.828C310.043 419.975 312.251 419.535 314.482 419.535C316.713 419.535 318.922 419.975 320.983 420.828C323.043 421.682 324.916 422.933 326.493 424.51C328.071 426.088 329.322 427.96 330.175 430.021C331.029 432.082 331.469 434.291 331.469 436.522L314.482 436.522H297.496Z" fill="#E6F2FF"/>
<path d="M324.252 436.521C324.252 435.258 324.501 434.007 324.985 432.839C325.468 431.672 326.177 430.611 327.071 429.718C327.964 428.824 329.025 428.115 330.192 427.632C331.36 427.148 332.611 426.899 333.874 426.899C335.138 426.899 336.389 427.148 337.557 427.632C338.724 428.115 339.785 428.824 340.678 429.718C341.572 430.611 342.28 431.672 342.764 432.839C343.247 434.007 343.496 435.258 343.496 436.521L333.874 436.521H324.252Z" fill="#E6F2FF"/>
<path d="M239.543 436.271C239.543 433.614 240.066 430.983 241.083 428.528C242.1 426.073 243.591 423.842 245.469 421.963C247.348 420.085 249.579 418.594 252.034 417.577C254.489 416.56 257.12 416.037 259.777 416.037C262.434 416.037 265.065 416.56 267.52 417.577C269.975 418.594 272.206 420.085 274.084 421.963C275.963 423.842 277.454 426.073 278.471 428.528C279.487 430.983 280.011 433.614 280.011 436.271L259.777 436.271H239.543Z" fill="#E6F2FF"/>
<path d="M735.824 606.109C735.824 601.844 734.984 597.621 733.352 593.682C731.72 589.742 729.328 586.162 726.313 583.146C723.297 580.131 719.717 577.739 715.778 576.107C711.838 574.475 707.615 573.635 703.35 573.635C699.086 573.635 694.863 574.475 690.923 576.107C686.983 577.739 683.403 580.131 680.388 583.146C677.372 586.162 674.98 589.742 673.348 593.682C671.716 597.621 670.876 601.844 670.876 606.109L703.35 606.109H735.824Z" fill="#E6F2FF"/>
<path d="M687.862 606.109C687.862 603.878 687.423 601.669 686.569 599.609C685.716 597.548 684.465 595.675 682.887 594.098C681.31 592.52 679.437 591.269 677.376 590.416C675.316 589.562 673.107 589.123 670.876 589.123C668.645 589.123 666.437 589.562 664.376 590.416C662.315 591.269 660.442 592.52 658.865 594.098C657.288 595.675 656.036 597.548 655.183 599.609C654.329 601.669 653.89 603.878 653.89 606.109L670.876 606.109H687.862Z" fill="#E6F2FF"/>
<path d="M661.106 606.109C661.106 604.845 660.857 603.594 660.373 602.427C659.89 601.259 659.181 600.198 658.287 599.305C657.394 598.412 656.333 597.703 655.166 597.219C653.999 596.736 652.747 596.487 651.484 596.487C650.22 596.487 648.969 596.736 647.802 597.219C646.634 597.703 645.573 598.412 644.68 599.305C643.787 600.198 643.078 601.259 642.594 602.427C642.111 603.594 641.862 604.845 641.862 606.109L651.484 606.109H661.106Z" fill="#E6F2FF"/>
<path d="M757.326 606.109C757.326 604.845 757.077 603.594 756.594 602.427C756.11 601.259 755.401 600.198 754.508 599.305C753.614 598.412 752.554 597.703 751.386 597.219C750.219 596.736 748.968 596.487 747.704 596.487C746.441 596.487 745.189 596.736 744.022 597.219C742.855 597.703 741.794 598.412 740.9 599.305C740.007 600.198 739.298 601.259 738.815 602.427C738.331 603.594 738.082 604.845 738.082 606.109L747.704 606.109H757.326Z" fill="#E6F2FF"/>
<path d="M767.548 606.109C767.548 604.845 767.299 603.594 766.815 602.427C766.332 601.259 765.623 600.198 764.73 599.305C763.836 598.412 762.775 597.703 761.608 597.219C760.441 596.736 759.189 596.487 757.926 596.487C756.662 596.487 755.411 596.736 754.244 597.219C753.076 597.703 752.016 598.412 751.122 599.305C750.229 600.198 749.52 601.259 749.036 602.427C748.553 603.594 748.304 604.845 748.304 606.109L757.926 606.109H767.548Z" fill="#E6F2FF"/>
<path d="M745.815 605.858C745.815 603.201 745.292 600.57 744.275 598.115C743.258 595.66 741.768 593.43 739.889 591.551C738.01 589.672 735.779 588.182 733.324 587.165C730.87 586.148 728.238 585.625 725.581 585.625C722.924 585.625 720.293 586.148 717.838 587.165C715.383 588.182 713.153 589.672 711.274 591.551C709.395 593.43 707.904 595.66 706.888 598.115C705.871 600.57 705.347 603.201 705.347 605.858L725.581 605.858H745.815Z" fill="#E6F2FF"/>
<path d="M970.357 485.834C970.357 481.57 969.517 477.347 967.885 473.407C966.253 469.467 963.861 465.887 960.846 462.872C957.83 459.856 954.25 457.464 950.31 455.832C946.37 454.2 942.148 453.36 937.883 453.36C933.618 453.36 929.396 454.2 925.456 455.832C921.516 457.464 917.936 459.856 914.92 462.872C911.905 465.887 909.513 469.467 907.881 473.407C906.249 477.347 905.409 481.57 905.409 485.834L937.883 485.834H970.357Z" fill="#E6F2FF"/>
<path d="M922.395 485.835C922.395 483.604 921.956 481.395 921.102 479.334C920.249 477.273 918.997 475.401 917.42 473.823C915.843 472.246 913.97 470.995 911.909 470.141C909.848 469.288 907.639 468.848 905.409 468.848C903.178 468.848 900.969 469.288 898.908 470.141C896.847 470.995 894.975 472.246 893.398 473.823C891.82 475.401 890.569 477.273 889.715 479.334C888.862 481.395 888.422 483.604 888.422 485.835L905.409 485.835H922.395Z" fill="#E6F2FF"/>
<path d="M895.638 485.834C895.638 484.571 895.39 483.32 894.906 482.152C894.422 480.985 893.714 479.924 892.82 479.031C891.927 478.137 890.866 477.428 889.699 476.945C888.531 476.461 887.28 476.212 886.016 476.212C884.753 476.212 883.502 476.461 882.334 476.945C881.167 477.428 880.106 478.137 879.213 479.031C878.319 479.924 877.611 480.985 877.127 482.152C876.643 483.32 876.395 484.571 876.395 485.834L886.016 485.834H895.638Z" fill="#E6F2FF"/>
<path d="M980.348 485.585C980.348 482.928 979.824 480.297 978.808 477.842C977.791 475.387 976.3 473.156 974.421 471.277C972.543 469.399 970.312 467.908 967.857 466.891C965.402 465.874 962.771 465.351 960.114 465.351C957.457 465.351 954.826 465.874 952.371 466.891C949.916 467.908 947.685 469.399 945.806 471.277C943.928 473.156 942.437 475.387 941.42 477.842C940.403 480.297 939.88 482.928 939.88 485.585L960.114 485.585H980.348Z" fill="#E6F2FF"/>
<path d="M111.451 563.411C111.451 562.747 111.99 562.208 112.654 562.208H175.197C175.861 562.208 176.399 562.747 176.399 563.411V796.743H111.451V563.411Z" fill="#9DCDFF"/>
<path d="M142.722 491.247C142.722 490.582 143.26 490.044 143.924 490.044H213.683C214.348 490.044 214.886 490.582 214.886 491.247V796.743H142.722V491.247Z" fill="#9DCDFF"/>
<path d="M101.831 546.573C101.831 545.909 102.369 545.37 103.034 545.37H215.49C216.154 545.37 216.693 545.909 216.693 546.573V571.83C216.693 572.495 216.154 573.033 215.49 573.033H103.034C102.369 573.033 101.831 572.495 101.831 571.83V546.573Z" fill="#6BB3FD"/>
<path d="M101.831 579.047C101.831 578.383 102.369 577.845 103.034 577.845H215.49C216.154 577.845 216.693 578.383 216.693 579.047V604.305C216.693 604.969 216.154 605.508 215.49 605.508H103.034C102.369 605.508 101.831 604.969 101.831 604.305V579.047Z" fill="#6BB3FD"/>
<path d="M101.831 611.521C101.831 610.857 102.369 610.318 103.034 610.318H215.49C216.154 610.318 216.693 610.857 216.693 611.521V636.779C216.693 637.443 216.154 637.981 215.49 637.981H103.034C102.369 637.981 101.831 637.443 101.831 636.779V611.521Z" fill="#6BB3FD"/>
<path d="M101.831 643.995C101.831 643.331 102.369 642.792 103.034 642.792H215.49C216.154 642.792 216.693 643.331 216.693 643.995V669.253C216.693 669.917 216.154 670.456 215.49 670.456H103.034C102.369 670.456 101.831 669.917 101.831 669.253V643.995Z" fill="#6BB3FD"/>
<path d="M101.831 676.47C101.831 675.806 102.369 675.267 103.034 675.267H215.49C216.154 675.267 216.693 675.806 216.693 676.47V701.727C216.693 702.392 216.154 702.93 215.49 702.93H103.034C102.369 702.93 101.831 702.392 101.831 701.727V676.47Z" fill="#6BB3FD"/>
<path d="M101.831 708.944C101.831 708.28 102.369 707.741 103.034 707.741H215.49C216.154 707.741 216.693 708.28 216.693 708.944V734.202C216.693 734.866 216.154 735.404 215.49 735.404H103.034C102.369 735.404 101.831 734.866 101.831 734.202V708.944Z" fill="#6BB3FD"/>
<path d="M101.831 741.418C101.831 740.753 102.369 740.215 103.034 740.215H215.49C216.154 740.215 216.693 740.753 216.693 741.418V766.675C216.693 767.339 216.154 767.878 215.49 767.878H103.034C102.369 767.878 101.831 767.339 101.831 766.675V741.418Z" fill="#6BB3FD"/>
<path d="M101.831 773.891C101.831 773.227 102.369 772.688 103.034 772.688H215.49C216.154 772.688 216.693 773.227 216.693 773.891V799.149C216.693 799.813 216.154 800.352 215.49 800.352H103.034C102.369 800.352 101.831 799.813 101.831 799.149V773.891Z" fill="#6BB3FD"/>
<path d="M138.512 514.099C138.512 513.435 139.05 512.896 139.715 512.896H215.487C216.152 512.896 216.69 513.435 216.69 514.099V539.357C216.69 540.021 216.152 540.56 215.487 540.56H139.715C139.05 540.56 138.512 540.021 138.512 539.357V514.099Z" fill="#6BB3FD"/>
<path d="M301.608 744.451H312.185L311.127 792.051L313.243 797.34H300.55L302.665 792.051L301.608 744.451Z" fill="#6A450E"/>
<path d="M329.11 742.888C329.11 769.176 319.165 774.074 306.897 774.074C294.629 774.074 284.684 769.176 284.684 742.888C284.684 716.599 294.629 678.875 306.897 678.875C319.165 678.875 329.11 716.599 329.11 742.888Z" fill="#117765"/>
<path d="M138.512 481.625C138.512 480.96 139.05 480.422 139.715 480.422H215.487C216.152 480.422 216.69 480.96 216.69 481.625V506.882C216.69 507.546 216.152 508.085 215.487 508.085H139.715C139.05 508.085 138.512 507.546 138.512 506.882V481.625Z" fill="#6BB3FD"/>
<path d="M309.904 635.576C309.904 634.912 310.443 634.374 311.107 634.374H388.082C388.747 634.374 389.285 634.912 389.285 635.576V882.74H309.904V635.576Z" fill="#9DCDFF"/>
<path d="M310.104 635.749C309.999 635.024 310.561 634.374 311.294 634.374H387.895C388.628 634.374 389.191 635.024 389.085 635.749L353.203 882.74H345.986L310.104 635.749Z" fill="#6BB3FD"/>
<path d="M401.312 737.577C401.312 737.01 401.707 736.521 402.26 736.401L511.109 712.866C511.858 712.704 512.565 713.275 512.565 714.042V960.918H401.312V737.577Z" fill="#9DCDFF"/>
<path d="M492.719 749.837C492.719 749.172 493.258 748.634 493.922 748.634H602.77C603.434 748.634 603.973 749.172 603.973 749.837V997H492.719V749.837Z" fill="#9DCDFF"/>
<path d="M616.002 802.831C616.002 752.971 656.422 712.551 706.282 712.551V712.551C706.905 712.551 707.411 713.057 707.411 713.68V960.918H616.002V802.831Z" fill="#9DCDFF"/>
<path d="M638.252 811.414C638.252 768.771 672.821 734.201 715.465 734.201V734.201C715.998 734.201 716.43 734.633 716.43 735.166V946.485H638.252V811.414Z" fill="#6BB3FD"/>
<path d="M688.769 816.537C688.769 787.67 712.169 764.27 741.036 764.27V764.27C741.397 764.27 741.689 764.562 741.689 764.923V907.997H688.769V816.537Z" fill="#6BB3FD"/>
<path d="M142.121 500.868V793.736" stroke="#6BB3FD" stroke-width="1.80411"/>
<path d="M166.175 500.868V793.736" stroke="#6BB3FD" stroke-width="1.80411"/>
<path d="M190.23 500.868V793.736" stroke="#6BB3FD" stroke-width="1.80411"/>
<path d="M214.286 500.868V793.736" stroke="#6BB3FD" stroke-width="1.80411"/>
<path d="M1252 563.203C1252 562.538 1251.46 562 1250.8 562H1151.2C1150.54 562 1150 562.538 1150 563.203V797H1252V563.203Z" fill="#9DCDFF"/>
<path d="M1262 546.573C1262 545.909 1261.46 545.37 1260.8 545.37H1148.34C1147.68 545.37 1147.14 545.909 1147.14 546.573V571.83C1147.14 572.495 1147.68 573.033 1148.34 573.033H1260.8C1261.46 573.033 1262 572.495 1262 571.83V546.573Z" fill="#6BB3FD"/>
<path d="M1262 579.047C1262 578.383 1261.46 577.845 1260.8 577.845H1148.34C1147.68 577.845 1147.14 578.383 1147.14 579.047V604.305C1147.14 604.969 1147.68 605.508 1148.34 605.508H1260.8C1261.46 605.508 1262 604.969 1262 604.305V579.047Z" fill="#6BB3FD"/>
<path d="M1262 611.521C1262 610.857 1261.46 610.318 1260.8 610.318H1148.34C1147.68 610.318 1147.14 610.857 1147.14 611.521V636.779C1147.14 637.443 1147.68 637.981 1148.34 637.981H1260.8C1261.46 637.981 1262 637.443 1262 636.779V611.521Z" fill="#6BB3FD"/>
<path d="M1262 643.995C1262 643.331 1261.46 642.792 1260.8 642.792H1148.34C1147.68 642.792 1147.14 643.331 1147.14 643.995V669.253C1147.14 669.917 1147.68 670.456 1148.34 670.456H1260.8C1261.46 670.456 1262 669.917 1262 669.253V643.995Z" fill="#6BB3FD"/>
<path d="M1262 676.47C1262 675.806 1261.46 675.267 1260.8 675.267H1148.34C1147.68 675.267 1147.14 675.806 1147.14 676.47V701.727C1147.14 702.392 1147.68 702.93 1148.34 702.93H1260.8C1261.46 702.93 1262 702.392 1262 701.727V676.47Z" fill="#6BB3FD"/>
<path d="M1262 708.944C1262 708.28 1261.46 707.741 1260.8 707.741H1148.34C1147.68 707.741 1147.14 708.28 1147.14 708.944V734.202C1147.14 734.866 1147.68 735.404 1148.34 735.404H1260.8C1261.46 735.404 1262 734.866 1262 734.202V708.944Z" fill="#6BB3FD"/>
<path d="M1262 741.418C1262 740.753 1261.46 740.215 1260.8 740.215H1148.34C1147.68 740.215 1147.14 740.753 1147.14 741.418V766.675C1147.14 767.339 1147.68 767.878 1148.34 767.878H1260.8C1261.46 767.878 1262 767.339 1262 766.675V741.418Z" fill="#6BB3FD"/>
<path d="M1262 773.891C1262 773.227 1261.46 772.688 1260.8 772.688H1148.34C1147.68 772.688 1147.14 773.227 1147.14 773.891V799.149C1147.14 799.813 1147.68 800.352 1148.34 800.352H1260.8C1261.46 800.352 1262 799.813 1262 799.149V773.891Z" fill="#6BB3FD"/>
<path d="M1053.93 635.576C1053.93 634.912 1053.39 634.374 1052.72 634.374H975.748C975.084 634.374 974.546 634.912 974.546 635.576V882.74H1053.93V635.576Z" fill="#9DCDFF"/>
<path d="M1053.73 635.749C1053.83 635.024 1053.27 634.374 1052.54 634.374H975.936C975.203 634.374 974.64 635.024 974.745 635.749L1010.63 882.74H1017.84L1053.73 635.749Z" fill="#6BB3FD"/>
<path d="M1222 556V794" stroke="#6BB3FD" stroke-width="1.80411"/>
<path d="M1198 556V794" stroke="#6BB3FD" stroke-width="1.80411"/>
<path d="M1174 556V794" stroke="#6BB3FD" stroke-width="1.80411"/>
<path d="M1150 556V794" stroke="#6BB3FD" stroke-width="1.80411"/>
<rect x="502.945" y="744.424" width="107.044" height="42.6974" rx="1.20274" fill="#6BB3FD"/>
<path d="M406.125 714.957H504.749" stroke="#6BB3FD" stroke-width="1.80411"/>
<path d="M406.125 739.012H504.749" stroke="#6BB3FD" stroke-width="1.80411"/>
<path d="M406.125 763.066H504.749" stroke="#6BB3FD" stroke-width="1.80411"/>
<path d="M406.125 787.122H504.749" stroke="#6BB3FD" stroke-width="1.80411"/>
<path d="M423.864 711.95V907.395" stroke="#6BB3FD" stroke-width="1.80411"/>
<path d="M447.919 711.95V907.395" stroke="#6BB3FD" stroke-width="1.80411"/>
<path d="M471.973 711.95V907.395" stroke="#6BB3FD" stroke-width="1.80411"/>
<path d="M496.029 711.95V907.395" stroke="#6BB3FD" stroke-width="1.80411"/>
<path d="M226.312 637.195C226.312 598.106 258 566.418 297.089 566.418V566.418C297.524 566.418 297.876 566.77 297.876 567.204V796.743H226.312V637.195Z" fill="#9DCDFF"/>
<path d="M244.354 656.023C244.354 646.059 236.276 637.981 226.312 637.981V637.981V809.372V809.372C236.276 809.372 244.354 801.295 244.354 791.331V656.023Z" fill="#6BB3FD"/>
<path d="M300.584 599.494H259.089" stroke="white" stroke-width="1.80411"/>
<path d="M300.584 623.549H259.089" stroke="white" stroke-width="1.80411"/>
<path d="M300.584 647.604H259.089" stroke="white" stroke-width="1.80411"/>
<path d="M300.584 671.659H259.089" stroke="white" stroke-width="1.80411"/>
<path d="M300.584 695.714H259.089" stroke="white" stroke-width="1.80411"/>
<path d="M300.584 719.769H259.089" stroke="white" stroke-width="1.80411"/>
<path d="M300.584 743.823H259.089" stroke="white" stroke-width="1.80411"/>
<path d="M300.584 767.877H259.089" stroke="white" stroke-width="1.80411"/>
<path d="M300.584 791.933H259.089" stroke="white" stroke-width="1.80411"/>
<path d="M281.039 600.096V792.534" stroke="white" stroke-width="1.80411"/>
<path d="M211.279 767.277H217.293L216.691 794.339L217.894 797.346H210.677L211.88 794.339L211.279 767.277Z" fill="#6A450E"/>
<path d="M229.923 760.475C229.923 780.403 222.384 784.115 213.084 784.115C203.785 784.115 196.246 780.403 196.246 760.475C196.246 740.547 203.785 711.951 213.084 711.951C222.384 711.951 229.923 740.547 229.923 760.475Z" fill="#158974"/>
<path d="M246.157 767.277H252.171L251.57 794.339L252.772 797.346H245.556L246.759 794.339L246.157 767.277Z" fill="#6A450E"/>
<path d="M264.801 760.475C264.801 780.403 257.262 784.115 247.963 784.115C238.663 784.115 231.124 780.403 231.124 760.475C231.124 740.547 238.663 711.951 247.963 711.951C257.262 711.951 264.801 740.547 264.801 760.475Z" fill="#158974"/>
<path d="M395.295 767.276H401.309L400.708 794.338L401.91 797.344H394.694L395.897 794.338L395.295 767.276Z" fill="#6A450E"/>
<path d="M410.932 766.384C410.932 781.33 405.278 784.114 398.304 784.114C391.329 784.114 385.675 781.33 385.675 766.384C385.675 751.438 391.329 729.991 398.304 729.991C405.278 729.991 410.932 751.438 410.932 766.384Z" fill="#158974"/>
<path d="M1165.29 767.276H1171.31L1170.71 794.338L1171.91 797.344H1164.69L1165.9 794.338L1165.29 767.276Z" fill="#6A450E"/>
<path d="M1180.93 766.384C1180.93 781.33 1175.28 784.114 1168.3 784.114C1161.33 784.114 1155.67 781.33 1155.67 766.384C1155.67 751.438 1161.33 729.991 1168.3 729.991C1175.28 729.991 1180.93 751.438 1180.93 766.384Z" fill="#158974"/>
<path d="M504.781 779.626H508.325L507.971 795.574L508.68 797.345H504.427L505.136 795.574L504.781 779.626Z" fill="#6A450E"/>
<path d="M513.995 779.101C513.995 787.908 510.663 789.549 506.553 789.549C502.442 789.549 499.111 787.908 499.111 779.101C499.111 770.294 502.442 757.655 506.553 757.655C510.663 757.655 513.995 770.294 513.995 779.101Z" fill="#158974"/>
<path d="M740.781 779.626H744.325L743.97 795.574L744.679 797.345H740.427L741.135 795.574L740.781 779.626Z" fill="#6A450E"/>
<path d="M749.994 779.101C749.994 787.908 746.662 789.549 742.552 789.549C738.442 789.549 735.11 787.908 735.11 779.101C735.11 770.294 738.442 757.655 742.552 757.655C746.662 757.655 749.994 770.294 749.994 779.101Z" fill="#158974"/>
<path d="M1071.61 763.125H1078.25L1077.59 793.023L1078.92 796.345H1070.95L1072.27 793.023L1071.61 763.125Z" fill="#6A450E"/>
<path d="M1092.21 755.61C1092.21 777.627 1083.88 781.728 1073.6 781.728C1063.33 781.728 1055 777.627 1055 755.61C1055 733.594 1063.33 702 1073.6 702C1083.88 702 1092.21 733.594 1092.21 755.61Z" fill="#158974"/>
<path d="M1115.19 799.467C1115.19 804.781 1119.11 805.771 1123.95 805.771C1128.8 805.771 1132.72 804.781 1132.72 799.467C1132.72 794.153 1128.8 786.527 1123.95 786.527C1119.11 786.527 1115.19 794.153 1115.19 799.467Z" fill="#158974"/>
<path d="M1107 796.418C1107 799.74 1109.45 800.358 1112.48 800.358C1115.51 800.358 1117.96 799.74 1117.96 796.418C1117.96 793.097 1115.51 788.331 1112.48 788.331C1109.45 788.331 1107 793.097 1107 796.418Z" fill="#158974"/>
<path d="M196.243 799.305C196.243 806.777 190.723 808.17 183.915 808.17C177.106 808.17 171.587 806.777 171.587 799.305C171.587 791.832 177.106 781.108 183.915 781.108C190.723 781.108 196.243 791.832 196.243 799.305Z" fill="#158974"/>
<path d="M181.208 793.892C181.208 801.365 175.689 802.757 168.88 802.757C162.071 802.757 156.552 801.365 156.552 793.892C156.552 786.419 162.071 775.695 168.88 775.695C175.689 775.695 181.208 786.419 181.208 793.892Z" fill="#158974"/>
<path d="M608.183 802.467C608.183 807.781 604.258 808.771 599.416 808.771C594.575 808.771 590.65 807.781 590.65 802.467C590.65 797.153 594.575 789.527 599.416 789.527C604.258 789.527 608.183 797.153 608.183 802.467Z" fill="#158974"/>
<path d="M616.37 799.418C616.37 802.74 613.917 803.358 610.891 803.358C607.865 803.358 605.412 802.74 605.412 799.418C605.412 796.097 607.865 791.331 610.891 791.331C613.917 791.331 616.37 796.097 616.37 799.418Z" fill="#158974"/>
<path d="M161.364 801.265C161.364 806.579 157.46 807.569 152.644 807.569C147.829 807.569 143.925 806.579 143.925 801.265C143.925 795.951 147.829 788.325 152.644 788.325C157.46 788.325 161.364 795.951 161.364 801.265Z" fill="#158974"/>
<path d="M302.552 796.578C302.552 800.529 299.633 801.265 296.033 801.265C292.433 801.265 289.515 800.529 289.515 796.578C289.515 792.627 292.433 786.957 296.033 786.957C299.633 786.957 302.552 792.627 302.552 796.578Z" fill="#158974"/>
<path d="M291.461 796.868C291.461 799.678 289.397 800.201 286.85 800.201C284.304 800.201 282.24 799.678 282.24 796.868C282.24 794.058 284.304 790.026 286.85 790.026C289.397 790.026 291.461 794.058 291.461 796.868Z" fill="#158974"/>
<path d="M882.319 799.305C882.319 806.777 876.8 808.17 869.991 808.17C863.182 808.17 857.663 806.777 857.663 799.305C857.663 791.832 863.182 781.108 869.991 781.108C876.8 781.108 882.319 791.832 882.319 799.305Z" fill="#158974"/>
<path d="M867.284 793.892C867.284 801.365 861.765 802.757 854.956 802.757C848.148 802.757 842.628 801.365 842.628 793.892C842.628 786.419 848.148 775.695 854.956 775.695C861.765 775.695 867.284 786.419 867.284 793.892Z" fill="#158974"/>
<path d="M1294.26 802.467C1294.26 807.781 1290.33 808.771 1285.49 808.771C1280.65 808.771 1276.73 807.781 1276.73 802.467C1276.73 797.153 1280.65 789.527 1285.49 789.527C1290.33 789.527 1294.26 797.153 1294.26 802.467Z" fill="#158974"/>
<path d="M1302.45 799.418C1302.45 802.74 1299.99 803.358 1296.97 803.358C1293.94 803.358 1291.49 802.74 1291.49 799.418C1291.49 796.097 1293.94 791.331 1296.97 791.331C1299.99 791.331 1302.45 796.097 1302.45 799.418Z" fill="#158974"/>
<path d="M847.44 801.265C847.44 806.579 843.536 807.569 838.721 807.569C833.905 807.569 830.001 806.579 830.001 801.265C830.001 795.951 833.905 788.325 838.721 788.325C843.536 788.325 847.44 795.951 847.44 801.265Z" fill="#158974"/>
<rect x="745" y="736" width="97" height="104" rx="1.20274" fill="#6BB3FD"/>
<rect width="97" height="21" rx="1.20274" transform="matrix(1 0 0 -1 745 731)" fill="#6BB3FD"/>
<rect width="75" height="21" rx="1.20274" transform="matrix(1 0 0 -1 756 746)" fill="#9DCDFF"/>
<rect width="75" height="21" rx="1.20274" transform="matrix(1 0 0 -1 756 776)" fill="#9DCDFF"/>
<rect width="75" height="21" rx="1.20274" transform="matrix(1 0 0 -1 756 806)" fill="#9DCDFF"/>
<rect x="84" y="796" width="1228" height="5" rx="2.5" fill="#3E92E7"/>
</g>
<defs>
<clipPath id="clip0_5870_83123">
<rect width="1366" height="800" fill="white"/>
</clipPath>
</defs>
</svg>
